<svg xmlns="http://www.w3.org/2000/svg" width="1087" height="657" fill="none" viewBox="0 0 1087 657"><g filter="url(#filter0_d_101_19)"><mask id="path-1-outside-1_101_19" width="1067" height="637" x="0" y="0" fill="#000" maskUnits="userSpaceOnUse"><rect width="1067" height="637" fill="#fff"/><path d="M3 3H1064V629L966.799 521.069H3V3Z"/></mask><path fill="#FFED31" d="M3 3H1064V629L966.799 521.069H3V3Z"/><path fill="#000" d="M3 3V0H0V3H3ZM1064 3H1067V0H1064V3ZM1064 629L1061.77 631.008L1067 636.814V629H1064ZM966.799 521.069L969.029 519.061L968.135 518.069H966.799V521.069ZM3 521.069H0V524.069H3V521.069ZM3 6H1064V0H3V6ZM1061 3V629H1067V3H1061ZM1066.23 626.992L969.029 519.061L964.57 523.077L1061.77 631.008L1066.23 626.992ZM966.799 518.069H3V524.069H966.799V518.069ZM6 521.069V3H0V521.069H6Z" mask="url(#path-1-outside-1_101_19)"/></g><path fill="#000" d="M185.962 98H185.062V93.36L180.162 85.02H181.262L185.042 91.46C185.335 92.0467 185.502 92.36 185.542 92.4C185.622 92.2267 185.789 91.92 186.042 91.48L189.822 85.02H190.862L185.962 93.4V98ZM225.921 98.2C224.068 98.2 222.515 97.5533 221.261 96.26C220.008 94.9667 219.381 93.3867 219.381 91.52C219.381 89.64 220.008 88.0533 221.261 86.76C222.515 85.4667 224.068 84.82 225.921 84.82C227.775 84.82 229.328 85.4667 230.581 86.76C231.835 88.0533 232.461 89.64 232.461 91.52C232.461 93.3867 231.835 94.9667 230.581 96.26C229.328 97.5533 227.775 98.2 225.921 98.2ZM225.921 85.64C224.321 85.64 222.988 86.2067 221.921 87.34C220.868 88.4733 220.341 89.8667 220.341 91.52C220.341 93.16 220.868 94.5467 221.921 95.68C222.988 96.8 224.321 97.36 225.921 97.36C227.535 97.36 228.868 96.8 229.921 95.68C230.975 94.5467 231.501 93.16 231.501 91.52C231.501 89.8667 230.975 88.4733 229.921 87.34C228.868 86.2067 227.535 85.64 225.921 85.64ZM272.71 96.66C271.83 97.6867 270.49 98.2 268.69 98.2C266.89 98.2 265.55 97.6867 264.67 96.66C263.79 95.6333 263.35 94.2133 263.35 92.4V85.02H264.27V92.4C264.27 95.72 265.744 97.38 268.69 97.38C271.637 97.38 273.11 95.72 273.11 92.4V85.02H274.03V92.4C274.03 94.2133 273.59 95.6333 272.71 96.66ZM305.705 98V85.08C306.851 84.9867 307.825 84.94 308.625 84.94C309.851 84.94 310.865 85.26 311.665 85.9C312.465 86.5267 312.865 87.4267 312.865 88.6C312.865 89.3867 312.638 90.1133 312.185 90.78C311.731 91.4467 311.218 91.9867 310.645 92.4C312.231 94.5067 313.211 95.7667 313.585 96.18C314.345 96.9667 315.171 97.4133 316.065 97.52L316.045 98.14C315.298 98.1267 314.691 98.02 314.225 97.82C313.758 97.6067 313.291 97.2533 312.825 96.76C312.371 96.2667 311.365 94.94 309.805 92.78C308.725 92.78 307.665 92.7467 306.625 92.68V98H305.705ZM309.305 92.02C309.825 92.02 310.385 91.6733 310.985 90.98C311.585 90.2867 311.885 89.48 311.885 88.56C311.885 87.64 311.571 86.94 310.945 86.46C310.318 85.98 309.505 85.74 308.505 85.74C307.971 85.74 307.345 85.7667 306.625 85.82V91.92C307.585 91.9867 308.478 92.02 309.305 92.02ZM383.24 97.32C384.946 97.32 386.313 96.86 387.34 95.94C388.38 95.02 388.9 93.6333 388.9 91.78C388.9 89.9267 388.313 88.4533 387.14 87.36C385.98 86.2667 384.546 85.72 382.84 85.72C381.626 85.72 380.693 85.7467 380.04 85.8V97.18C380.84 97.2733 381.906 97.32 383.24 97.32ZM382.84 84.9C384.84 84.9 386.506 85.52 387.84 86.76C389.186 87.9867 389.86 89.66 389.86 91.78C389.86 93.9 389.24 95.4933 388 96.56C386.773 97.6267 385.186 98.16 383.24 98.16C381.893 98.16 380.506 98.0933 379.08 97.96V85.02C380.146 84.94 381.4 84.9 382.84 84.9ZM421.27 93.5L419.41 98H418.47L423.91 84.94H424.45L429.93 98H428.91L427.03 93.5H421.27ZM424.13 86.42C423.93 87.02 423.75 87.52 423.59 87.92L421.59 92.72H426.71L424.73 87.94C424.424 87.1933 424.224 86.6867 424.13 86.42ZM459.564 98V85.02H460.484V98H459.564ZM492.287 98V85.02H493.207V97.16H499.167V98H492.287ZM531.306 98H530.406V93.36L525.506 85.02H526.606L530.386 91.46C530.679 92.0467 530.846 92.36 530.886 92.4C530.966 92.2267 531.132 91.92 531.386 91.48L535.166 85.02H536.206L531.306 93.4V98ZM604.205 97.32C605.911 97.32 607.278 96.86 608.305 95.94C609.345 95.02 609.865 93.6333 609.865 91.78C609.865 89.9267 609.278 88.4533 608.105 87.36C606.945 86.2667 605.511 85.72 603.805 85.72C602.591 85.72 601.658 85.7467 601.005 85.8V97.18C601.805 97.2733 602.871 97.32 604.205 97.32ZM603.805 84.9C605.805 84.9 607.471 85.52 608.805 86.76C610.151 87.9867 610.825 89.66 610.825 91.78C610.825 93.9 610.205 95.4933 608.965 96.56C607.738 97.6267 606.151 98.16 604.205 98.16C602.858 98.16 601.471 98.0933 600.045 97.96V85.02C601.111 84.94 602.365 84.9 603.805 84.9ZM647.57 98.2C645.716 98.2 644.163 97.5533 642.91 96.26C641.656 94.9667 641.03 93.3867 641.03 91.52C641.03 89.64 641.656 88.0533 642.91 86.76C644.163 85.4667 645.716 84.82 647.57 84.82C649.423 84.82 650.976 85.4667 652.23 86.76C653.483 88.0533 654.11 89.64 654.11 91.52C654.11 93.3867 653.483 94.9667 652.23 96.26C650.976 97.5533 649.423 98.2 647.57 98.2ZM647.57 85.64C645.97 85.64 644.636 86.2067 643.57 87.34C642.516 88.4733 641.99 89.8667 641.99 91.52C641.99 93.16 642.516 94.5467 643.57 95.68C644.636 96.8 645.97 97.36 647.57 97.36C649.183 97.36 650.516 96.8 651.57 95.68C652.623 94.5467 653.15 93.16 653.15 91.52C653.15 89.8667 652.623 88.4733 651.57 87.34C650.516 86.2067 649.183 85.64 647.57 85.64ZM687.739 85.58C687.019 85.58 686.432 85.7533 685.979 86.1C685.525 86.4467 685.299 86.9333 685.299 87.56C685.299 88.28 685.599 88.9267 686.199 89.5C686.625 89.9133 687.172 90.3533 687.839 90.82C688.519 91.2733 688.985 91.6 689.239 91.8C689.492 92 689.799 92.2733 690.159 92.62C690.812 93.2733 691.139 94.0267 691.139 94.88C691.139 95.9867 690.765 96.8267 690.019 97.4C689.285 97.96 688.252 98.24 686.919 98.24C685.599 98.24 684.492 97.8933 683.599 97.2L684.079 96.5C684.985 97.1133 685.945 97.42 686.959 97.42C687.972 97.42 688.759 97.2067 689.319 96.78C689.892 96.3533 690.179 95.7533 690.179 94.98C690.179 94.3133 689.892 93.7 689.319 93.14C688.919 92.74 688.379 92.3067 687.699 91.84C687.032 91.3733 686.565 91.04 686.299 90.84C686.032 90.6267 685.719 90.3467 685.359 90C684.679 89.32 684.339 88.5333 684.339 87.64C684.339 86.7467 684.652 86.0467 685.279 85.54C685.919 85.0333 686.799 84.78 687.919 84.78C689.039 84.78 690.045 85 690.939 85.44L690.599 86.18C689.772 85.78 688.819 85.58 687.739 85.58ZM721.826 98V85.02H727.886V85.82H722.746V90.54H727.386V91.32H722.746V97.16H728.086V98H721.826ZM798.714 98.2C796.861 98.2 795.308 97.5533 794.054 96.26C792.801 94.9667 792.174 93.3867 792.174 91.52C792.174 89.64 792.801 88.0533 794.054 86.76C795.308 85.4667 796.861 84.82 798.714 84.82C800.568 84.82 802.121 85.4667 803.374 86.76C804.628 88.0533 805.254 89.64 805.254 91.52C805.254 93.3867 804.628 94.9667 803.374 96.26C802.121 97.5533 800.568 98.2 798.714 98.2ZM798.714 85.64C797.114 85.64 795.781 86.2067 794.714 87.34C793.661 88.4733 793.134 89.8667 793.134 91.52C793.134 93.16 793.661 94.5467 794.714 95.68C795.781 96.8 797.114 97.36 798.714 97.36C800.328 97.36 801.661 96.8 802.714 95.68C803.768 94.5467 804.294 93.16 804.294 91.52C804.294 89.8667 803.768 88.4733 802.714 87.34C801.661 86.2067 800.328 85.64 798.714 85.64ZM836.263 98V85.02H842.923V85.82H837.183V90.54H842.423V91.32H837.183V98H836.263Z"/><path fill="#000" d="M185.962 98V98.5H186.462V98H185.962ZM185.062 98H184.562V98.5H185.062V98ZM185.062 93.36H185.562V93.224L185.493 93.1067L185.062 93.36ZM180.162 85.02V84.52H179.288L179.731 85.2733L180.162 85.02ZM181.262 85.02L181.693 84.7669L181.548 84.52H181.262V85.02ZM185.042 91.46L185.489 91.2364L185.482 91.2214L185.473 91.2069L185.042 91.46ZM185.542 92.4L185.188 92.7536L185.695 93.2606L185.996 92.6095L185.542 92.4ZM186.042 91.48L185.61 91.2275L185.609 91.2305L186.042 91.48ZM189.822 85.02V84.52H189.535L189.39 84.7675L189.822 85.02ZM190.862 85.02L191.294 85.2724L191.733 84.52H190.862V85.02ZM185.962 93.4L185.53 93.1476L185.462 93.2645V93.4H185.962ZM185.962 97.5H185.062V98.5H185.962V97.5ZM185.562 98V93.36H184.562V98H185.562ZM185.493 93.1067L180.593 84.7667L179.731 85.2733L184.631 93.6133L185.493 93.1067ZM180.162 85.52H181.262V84.52H180.162V85.52ZM180.831 85.2731L184.611 91.7131L185.473 91.2069L181.693 84.7669L180.831 85.2731ZM184.595 91.6836C184.742 91.9781 184.859 92.2076 184.945 92.3698C184.988 92.4505 185.026 92.5185 185.057 92.5712C185.072 92.5973 185.088 92.6238 185.104 92.6481C185.114 92.6631 185.145 92.7098 185.188 92.7536L185.895 92.0464C185.929 92.0802 185.946 92.1084 185.938 92.0963C185.936 92.0935 185.93 92.0844 185.92 92.0663C185.899 92.0307 185.869 91.9762 185.828 91.9002C185.748 91.7491 185.635 91.5285 185.489 91.2364L184.595 91.6836ZM185.996 92.6095C186.065 92.4594 186.221 92.171 186.475 91.7295L185.609 91.2305C185.356 91.669 185.179 91.994 185.088 92.1905L185.996 92.6095ZM186.473 91.7325L190.253 85.2725L189.39 84.7675L185.61 91.2275L186.473 91.7325ZM189.822 85.52H190.862V84.52H189.822V85.52ZM190.43 84.7676L185.53 93.1476L186.394 93.6524L191.294 85.2724L190.43 84.7676ZM185.462 93.4V98H186.462V93.4H185.462ZM221.261 96.26L221.62 95.912L221.261 96.26ZM221.261 86.76L221.62 87.108L221.261 86.76ZM230.581 86.76L230.94 86.412L230.581 86.76ZM230.581 96.26L230.94 96.608L230.581 96.26ZM221.921 87.34L221.557 86.9973L221.555 86.9996L221.921 87.34ZM221.921 95.68L221.555 96.0204L221.559 96.0248L221.921 95.68ZM229.921 95.68L230.285 96.0226L230.287 96.0204L229.921 95.68ZM229.921 87.34L230.287 86.9996L229.921 87.34ZM225.921 97.7C224.199 97.7 222.776 97.1051 221.62 95.912L220.902 96.608C222.253 98.0016 223.937 98.7 225.921 98.7V97.7ZM221.62 95.912C220.461 94.7157 219.881 93.262 219.881 91.52H218.881C218.881 93.5113 219.555 95.2176 220.902 96.608L221.62 95.912ZM219.881 91.52C219.881 89.7636 220.462 88.3036 221.62 87.108L220.902 86.412C219.554 87.8031 218.881 89.5164 218.881 91.52H219.881ZM221.62 87.108C222.776 85.9149 224.199 85.32 225.921 85.32V84.32C223.937 84.32 222.253 85.0184 220.902 86.412L221.62 87.108ZM225.921 85.32C227.644 85.32 229.066 85.9149 230.222 87.108L230.94 86.412C229.59 85.0184 227.905 84.32 225.921 84.32V85.32ZM230.222 87.108C231.381 88.3036 231.961 89.7636 231.961 91.52H232.961C232.961 89.5164 232.288 87.8031 230.94 86.412L230.222 87.108ZM231.961 91.52C231.961 93.262 231.382 94.7157 230.222 95.912L230.94 96.608C232.288 95.2176 232.961 93.5113 232.961 91.52H231.961ZM230.222 95.912C229.066 97.1051 227.644 97.7 225.921 97.7V98.7C227.905 98.7 229.59 98.0016 230.94 96.608L230.222 95.912ZM225.921 85.14C224.188 85.14 222.721 85.7605 221.557 86.9973L222.285 87.6827C223.255 86.6529 224.455 86.14 225.921 86.14V85.14ZM221.555 86.9996C220.409 88.2322 219.841 89.7499 219.841 91.52H220.841C220.841 89.9835 221.326 88.7145 222.287 87.6804L221.555 86.9996ZM219.841 91.52C219.841 93.278 220.41 94.7886 221.555 96.0204L222.287 95.3396C221.326 94.3047 220.841 93.042 220.841 91.52H219.841ZM221.559 96.0248C222.724 97.2477 224.19 97.86 225.921 97.86V96.86C224.453 96.86 223.252 96.3523 222.283 95.3352L221.559 96.0248ZM225.921 97.86C227.665 97.86 229.133 97.2485 230.285 96.0225L229.557 95.3375C228.603 96.3515 227.404 96.86 225.921 96.86V97.86ZM230.287 96.0204C231.432 94.7886 232.001 93.278 232.001 91.52H231.001C231.001 93.042 230.517 94.3047 229.555 95.3396L230.287 96.0204ZM232.001 91.52C232.001 89.7499 231.433 88.2322 230.287 86.9996L229.555 87.6804C230.516 88.7145 231.001 89.9835 231.001 91.52H232.001ZM230.287 86.9996C229.135 85.7597 227.667 85.14 225.921 85.14V86.14C227.402 86.14 228.601 86.6536 229.555 87.6804L230.287 86.9996ZM272.71 96.66L273.09 96.9854L272.71 96.66ZM264.67 96.66L264.291 96.9854L264.67 96.66ZM263.35 85.02V84.52H262.85V85.02H263.35ZM264.27 85.02H264.77V84.52H264.27V85.02ZM273.11 85.02V84.52H272.61V85.02H273.11ZM274.03 85.02H274.53V84.52H274.03V85.02ZM272.331 96.3346C271.575 97.2167 270.396 97.7 268.69 97.7V98.7C270.585 98.7 272.086 98.1566 273.09 96.9854L272.331 96.3346ZM268.69 97.7C266.985 97.7 265.806 97.2167 265.05 96.3346L264.291 96.9854C265.295 98.1566 266.796 98.7 268.69 98.7V97.7ZM265.05 96.3346C264.271 95.4255 263.85 94.135 263.85 92.4H262.85C262.85 94.2917 263.31 95.8412 264.291 96.9854L265.05 96.3346ZM263.85 92.4V85.02H262.85V92.4H263.85ZM263.35 85.52H264.27V84.52H263.35V85.52ZM263.77 85.02V92.4H264.77V85.02H263.77ZM263.77 92.4C263.77 94.1234 264.151 95.5093 265.001 96.4669C265.861 97.4359 267.123 97.88 268.69 97.88V96.88C267.311 96.88 266.363 96.4941 265.749 95.8031C265.126 95.1007 264.77 93.9966 264.77 92.4H263.77ZM268.69 97.88C270.257 97.88 271.519 97.4359 272.379 96.4669C273.229 95.5093 273.61 94.1234 273.61 92.4H272.61C272.61 93.9966 272.255 95.1007 271.631 95.8031C271.018 96.4941 270.07 96.88 268.69 96.88V97.88ZM273.61 92.4V85.02H272.61V92.4H273.61ZM273.11 85.52H274.03V84.52H273.11V85.52ZM273.53 85.02V92.4H274.53V85.02H273.53ZM273.53 92.4C273.53 94.135 273.11 95.4255 272.331 96.3346L273.09 96.9854C274.071 95.8412 274.53 94.2917 274.53 92.4H273.53ZM305.705 98H305.205V98.5H305.705V98ZM305.705 85.08L305.664 84.5816L305.205 84.619V85.08H305.705ZM311.665 85.9L311.352 86.2905L311.356 86.2936L311.665 85.9ZM312.185 90.78L312.598 91.0612L312.185 90.78ZM310.645 92.4L310.352 91.9944L309.938 92.293L310.245 92.7008L310.645 92.4ZM313.585 96.18L313.214 96.5151L313.219 96.5214L313.225 96.5274L313.585 96.18ZM316.065 97.52L316.564 97.5361L316.579 97.0779L316.124 97.0235L316.065 97.52ZM316.045 98.14L316.036 98.6399L316.529 98.6487L316.544 98.1561L316.045 98.14ZM314.225 97.82L314.017 98.2749L314.028 98.2796L314.225 97.82ZM312.825 96.76L312.456 97.0983L312.461 97.1036L312.825 96.76ZM309.805 92.78L310.21 92.4873L310.06 92.28H309.805V92.78ZM306.625 92.68L306.657 92.181L306.125 92.1469V92.68H306.625ZM306.625 98V98.5H307.125V98H306.625ZM310.985 90.98L310.607 90.6528L310.985 90.98ZM310.945 86.46L311.249 86.0631V86.0631L310.945 86.46ZM306.625 85.82L306.588 85.3214L306.125 85.3557V85.82H306.625ZM306.625 91.92H306.125V92.3865L306.59 92.4188L306.625 91.92ZM306.205 98V85.08H305.205V98H306.205ZM305.745 85.5784C306.884 85.4857 307.843 85.44 308.625 85.44V84.44C307.807 84.44 306.819 84.4876 305.664 84.5816L305.745 85.5784ZM308.625 85.44C309.761 85.44 310.658 85.7346 311.352 86.2904L311.977 85.5096C311.072 84.7854 309.942 84.44 308.625 84.44V85.44ZM311.356 86.2936C312.016 86.8101 312.365 87.5535 312.365 88.6H313.365C313.365 87.2998 312.914 86.2432 311.973 85.5064L311.356 86.2936ZM312.365 88.6C312.365 89.2838 312.17 89.9129 311.771 90.4988L312.598 91.0612C313.106 90.3138 313.365 89.4896 313.365 88.6H312.365ZM311.771 90.4988C311.346 91.124 310.872 91.6196 310.352 91.9944L310.937 92.8056C311.564 92.3537 312.117 91.7693 312.598 91.0612L311.771 90.4988ZM310.245 92.7008C311.825 94.7988 312.822 96.0811 313.214 96.5151L313.956 95.8449C313.601 95.4522 312.637 94.2145 311.044 92.0992L310.245 92.7008ZM313.225 96.5274C314.047 97.3784 314.975 97.8934 316.005 98.0165L316.124 97.0235C315.368 96.9333 314.642 96.555 313.944 95.8326L313.225 96.5274ZM315.565 97.5039L315.545 98.1239L316.544 98.1561L316.564 97.5361L315.565 97.5039ZM316.054 97.6401C315.344 97.6274 314.808 97.5259 314.422 97.3604L314.028 98.2796C314.575 98.5141 315.252 98.6259 316.036 98.6399L316.054 97.6401ZM314.433 97.3653C314.04 97.1858 313.624 96.8773 313.188 96.4164L312.461 97.1036C312.959 97.6293 313.476 98.0276 314.017 98.2747L314.433 97.3653ZM313.193 96.4217C312.764 95.9549 311.776 94.6561 310.21 92.4873L309.399 93.0727C310.953 95.2239 311.979 96.5784 312.457 97.0983L313.193 96.4217ZM309.805 92.28C308.735 92.28 307.686 92.247 306.657 92.181L306.593 93.179C307.644 93.2463 308.714 93.28 309.805 93.28V92.28ZM306.125 92.68V98H307.125V92.68H306.125ZM306.625 97.5H305.705V98.5H306.625V97.5ZM309.305 92.52C310.049 92.52 310.736 92.0313 311.363 91.3072L310.607 90.6528C310.033 91.3154 309.6 91.52 309.305 91.52V92.52ZM311.363 91.3072C312.042 90.5226 312.385 89.5997 312.385 88.56H311.385C311.385 89.3603 311.128 90.0507 310.607 90.6528L311.363 91.3072ZM312.385 88.56C312.385 87.5135 312.02 86.6541 311.249 86.0631L310.641 86.8569C311.122 87.2259 311.385 87.7665 311.385 88.56H312.385ZM311.249 86.0631C310.514 85.5002 309.585 85.24 308.505 85.24V86.24C309.424 86.24 310.122 86.4598 310.641 86.8569L311.249 86.0631ZM308.505 85.24C307.956 85.24 307.316 85.2674 306.588 85.3214L306.662 86.3186C307.373 86.2659 307.987 86.24 308.505 86.24V85.24ZM306.125 85.82V91.92H307.125V85.82H306.125ZM306.59 92.4188C307.56 92.4861 308.465 92.52 309.305 92.52V91.52C308.491 91.52 307.61 91.4872 306.659 91.4212L306.59 92.4188ZM387.34 95.94L387.008 95.5655L387.006 95.5676L387.34 95.94ZM387.14 87.36L386.797 87.7239L386.799 87.7258L387.14 87.36ZM380.04 85.8L379.999 85.3017L379.54 85.3392V85.8H380.04ZM380.04 97.18H379.54V97.6251L379.982 97.6766L380.04 97.18ZM387.84 86.76L387.499 87.1262L387.503 87.1296L387.84 86.76ZM388 96.56L387.674 96.1809L387.672 96.1827L388 96.56ZM379.08 97.96H378.58V98.4154L379.033 98.4578L379.08 97.96ZM379.08 85.02L379.042 84.5214L378.58 84.5561V85.02H379.08ZM383.24 97.82C385.039 97.82 386.535 97.3329 387.673 96.3124L387.006 95.5676C386.092 96.3871 384.854 96.82 383.24 96.82V97.82ZM387.671 96.3145C388.851 95.2706 389.4 93.7261 389.4 91.78H388.4C388.4 93.5406 387.908 94.7694 387.008 95.5655L387.671 96.3145ZM389.4 91.78C389.4 89.8116 388.771 88.1971 387.481 86.9942L386.799 87.7258C387.855 88.7096 388.4 90.0418 388.4 91.78H389.4ZM387.483 86.9961C386.223 85.8088 384.664 85.22 382.84 85.22V86.22C384.429 86.22 385.736 86.7245 386.797 87.7239L387.483 86.9961ZM382.84 85.22C381.622 85.22 380.673 85.2467 379.999 85.3017L380.08 86.2983C380.713 86.2467 381.631 86.22 382.84 86.22V85.22ZM379.54 85.8V97.18H380.54V85.8H379.54ZM379.982 97.6766C380.809 97.7732 381.898 97.82 383.24 97.82V96.82C381.915 96.82 380.87 96.7735 380.098 96.6834L379.982 97.6766ZM382.84 85.4C384.727 85.4 386.268 85.981 387.499 87.1261L388.18 86.3939C386.745 85.059 384.953 84.4 382.84 84.4V85.4ZM387.503 87.1296C388.728 88.2458 389.36 89.7754 389.36 91.78H390.36C390.36 89.5446 389.644 87.7276 388.176 86.3904L387.503 87.1296ZM389.36 91.78C389.36 93.8005 388.772 95.2357 387.674 96.1809L388.326 96.9391C389.707 95.751 390.36 93.9995 390.36 91.78H389.36ZM387.672 96.1827C386.553 97.1553 385.091 97.66 383.24 97.66V98.66C385.282 98.66 386.993 98.0981 388.328 96.9373L387.672 96.1827ZM383.24 97.66C381.91 97.66 380.538 97.5941 379.126 97.4622L379.033 98.4578C380.474 98.5925 381.877 98.66 383.24 98.66V97.66ZM379.58 97.96V85.02H378.58V97.96H379.58ZM379.117 85.5186C380.168 85.4398 381.408 85.4 382.84 85.4V84.4C381.391 84.4 380.125 84.4402 379.042 84.5214L379.117 85.5186ZM421.27 93.5V93H420.936L420.808 93.309L421.27 93.5ZM419.41 98V98.5H419.745L419.873 98.191L419.41 98ZM418.47 98L418.009 97.8077L417.721 98.5H418.47V98ZM423.91 84.94V84.44H423.577L423.449 84.7477L423.91 84.94ZM424.45 84.94L424.912 84.7465L424.783 84.44H424.45V84.94ZM429.93 98V98.5H430.682L430.392 97.8065L429.93 98ZM428.91 98L428.449 98.1927L428.577 98.5H428.91V98ZM427.03 93.5L427.492 93.3073L427.363 93H427.03V93.5ZM424.13 86.42L424.602 86.2548L424.119 84.8735L423.656 86.2619L424.13 86.42ZM423.59 87.92L424.052 88.1123L424.055 88.1057L423.59 87.92ZM421.59 92.72L421.129 92.5277L420.84 93.22H421.59V92.72ZM426.71 92.72V93.22H427.459L427.172 92.5287L426.71 92.72ZM424.73 87.94L424.268 88.13L424.269 88.1313L424.73 87.94ZM420.808 93.309L418.948 97.809L419.873 98.191L421.733 93.691L420.808 93.309ZM419.41 97.5H418.47V98.5H419.41V97.5ZM418.932 98.1923L424.372 85.1323L423.449 84.7477L418.009 97.8077L418.932 98.1923ZM423.91 85.44H424.45V84.44H423.91V85.44ZM423.989 85.1335L429.469 98.1935L430.392 97.8065L424.912 84.7465L423.989 85.1335ZM429.93 97.5H428.91V98.5H429.93V97.5ZM429.372 97.8073L427.492 93.3073L426.569 93.6927L428.449 98.1927L429.372 97.8073ZM427.03 93H421.27V94H427.03V93ZM423.656 86.2619C423.458 86.8565 423.281 87.3465 423.126 87.7343L424.055 88.1057C424.22 87.6935 424.403 87.1835 424.605 86.5781L423.656 86.2619ZM423.129 87.7277L421.129 92.5277L422.052 92.9123L424.052 88.1123L423.129 87.7277ZM421.59 93.22H426.71V92.22H421.59V93.22ZM427.172 92.5287L425.192 87.7487L424.269 88.1313L426.249 92.9113L427.172 92.5287ZM425.193 87.75C424.886 87.0018 424.691 86.507 424.602 86.2548L423.659 86.5852C423.757 86.8663 423.962 87.3849 424.268 88.13L425.193 87.75ZM459.564 98H459.064V98.5H459.564V98ZM459.564 85.02V84.52H459.064V85.02H459.564ZM460.484 85.02H460.984V84.52H460.484V85.02ZM460.484 98V98.5H460.984V98H460.484ZM460.064 98V85.02H459.064V98H460.064ZM459.564 85.52H460.484V84.52H459.564V85.52ZM459.984 85.02V98H460.984V85.02H459.984ZM460.484 97.5H459.564V98.5H460.484V97.5ZM492.287 98H491.787V98.5H492.287V98ZM492.287 85.02V84.52H491.787V85.02H492.287ZM493.207 85.02H493.707V84.52H493.207V85.02ZM493.207 97.16H492.707V97.66H493.207V97.16ZM499.167 97.16H499.667V96.66H499.167V97.16ZM499.167 98V98.5H499.667V98H499.167ZM492.787 98V85.02H491.787V98H492.787ZM492.287 85.52H493.207V84.52H492.287V85.52ZM492.707 85.02V97.16H493.707V85.02H492.707ZM493.207 97.66H499.167V96.66H493.207V97.66ZM498.667 97.16V98H499.667V97.16H498.667ZM499.167 97.5H492.287V98.5H499.167V97.5ZM531.306 98V98.5H531.806V98H531.306ZM530.406 98H529.906V98.5H530.406V98ZM530.406 93.36H530.906V93.224L530.837 93.1067L530.406 93.36ZM525.506 85.02V84.52H524.632L525.075 85.2733L525.506 85.02ZM526.606 85.02L527.037 84.7669L526.892 84.52H526.606V85.02ZM530.386 91.46L530.833 91.2364L530.825 91.2214L530.817 91.2069L530.386 91.46ZM530.886 92.4L530.532 92.7536L531.039 93.2606L531.34 92.6095L530.886 92.4ZM531.386 91.48L530.954 91.2275L530.952 91.2305L531.386 91.48ZM535.166 85.02V84.52H534.879L534.734 84.7675L535.166 85.02ZM536.206 85.02L536.637 85.2724L537.077 84.52H536.206V85.02ZM531.306 93.4L530.874 93.1476L530.806 93.2645V93.4H531.306ZM531.306 97.5H530.406V98.5H531.306V97.5ZM530.906 98V93.36H529.906V98H530.906ZM530.837 93.1067L525.937 84.7667L525.075 85.2733L529.975 93.6133L530.837 93.1067ZM525.506 85.52H526.606V84.52H525.506V85.52ZM526.174 85.2731L529.954 91.7131L530.817 91.2069L527.037 84.7669L526.174 85.2731ZM529.938 91.6836C530.086 91.9781 530.203 92.2076 530.289 92.3698C530.332 92.4505 530.369 92.5185 530.4 92.5712C530.416 92.5973 530.432 92.6238 530.448 92.6481C530.458 92.6631 530.488 92.7098 530.532 92.7536L531.239 92.0464C531.273 92.0802 531.29 92.1084 531.282 92.0963C531.28 92.0935 531.274 92.0844 531.263 92.0663C531.243 92.0307 531.212 91.9762 531.172 91.9002C531.092 91.7491 530.979 91.5285 530.833 91.2364L529.938 91.6836ZM531.34 92.6095C531.409 92.4594 531.565 92.171 531.819 91.7295L530.952 91.2305C530.7 91.669 530.522 91.994 530.432 92.1905L531.34 92.6095ZM531.817 91.7325L535.597 85.2725L534.734 84.7675L530.954 91.2275L531.817 91.7325ZM535.166 85.52H536.206V84.52H535.166V85.52ZM535.774 84.7676L530.874 93.1476L531.737 93.6524L536.637 85.2724L535.774 84.7676ZM530.806 93.4V98H531.806V93.4H530.806ZM608.305 95.94L607.973 95.5655L607.971 95.5676L608.305 95.94ZM608.105 87.36L607.762 87.7239L607.764 87.7258L608.105 87.36ZM601.005 85.8L600.964 85.3017L600.505 85.3392V85.8H601.005ZM601.005 97.18H600.505V97.6251L600.947 97.6766L601.005 97.18ZM608.805 86.76L608.464 87.1262L608.468 87.1296L608.805 86.76ZM608.965 96.56L608.638 96.1809L608.636 96.1827L608.965 96.56ZM600.045 97.96H599.545V98.4154L599.998 98.4578L600.045 97.96ZM600.045 85.02L600.007 84.5214L599.545 84.5561V85.02H600.045ZM604.205 97.82C606.004 97.82 607.499 97.3329 608.638 96.3124L607.971 95.5676C607.056 96.3871 605.819 96.82 604.205 96.82V97.82ZM608.636 96.3145C609.816 95.2706 610.365 93.7261 610.365 91.78H609.365C609.365 93.5406 608.873 94.7694 607.973 95.5655L608.636 96.3145ZM610.365 91.78C610.365 89.8116 609.736 88.1971 608.445 86.9942L607.764 87.7258C608.819 88.7096 609.365 90.0418 609.365 91.78H610.365ZM608.447 86.9961C607.188 85.8088 605.629 85.22 603.805 85.22V86.22C605.394 86.22 606.701 86.7245 607.762 87.7239L608.447 86.9961ZM603.805 85.22C602.587 85.22 601.638 85.2467 600.964 85.3017L601.045 86.2983C601.678 86.2467 602.595 86.22 603.805 86.22V85.22ZM600.505 85.8V97.18H601.505V85.8H600.505ZM600.947 97.6766C601.774 97.7732 602.863 97.82 604.205 97.82V96.82C602.88 96.82 601.835 96.7735 601.062 96.6834L600.947 97.6766ZM603.805 85.4C605.692 85.4 607.233 85.981 608.464 87.1261L609.145 86.3939C607.71 85.059 605.917 84.4 603.805 84.4V85.4ZM608.468 87.1296C609.693 88.2458 610.325 89.7754 610.325 91.78H611.325C611.325 89.5446 610.609 87.7276 609.141 86.3904L608.468 87.1296ZM610.325 91.78C610.325 93.8005 609.737 95.2357 608.638 96.1809L609.291 96.9391C610.672 95.751 611.325 93.9995 611.325 91.78H610.325ZM608.636 96.1827C607.518 97.1553 606.056 97.66 604.205 97.66V98.66C606.247 98.66 607.958 98.0981 609.293 96.9373L608.636 96.1827ZM604.205 97.66C602.874 97.66 601.503 97.5941 600.091 97.4622L599.998 98.4578C601.439 98.5925 602.841 98.66 604.205 98.66V97.66ZM600.545 97.96V85.02H599.545V97.96H600.545ZM600.082 85.5186C601.133 85.4398 602.373 85.4 603.805 85.4V84.4C602.356 84.4 601.09 84.4402 600.007 84.5214L600.082 85.5186ZM642.91 96.26L643.269 95.912L642.91 96.26ZM642.91 86.76L643.269 87.108L642.91 86.76ZM652.23 86.76L652.589 86.412L652.23 86.76ZM652.23 96.26L652.589 96.608L652.23 96.26ZM643.57 87.34L643.206 86.9973L643.203 86.9996L643.57 87.34ZM643.57 95.68L643.203 96.0204L643.208 96.0248L643.57 95.68ZM651.57 95.68L651.934 96.0226L651.936 96.0204L651.57 95.68ZM651.57 87.34L651.936 86.9996L651.57 87.34ZM647.57 97.7C645.847 97.7 644.425 97.1051 643.269 95.912L642.551 96.608C643.901 98.0016 645.585 98.7 647.57 98.7V97.7ZM643.269 95.912C642.109 94.7157 641.53 93.262 641.53 91.52H640.53C640.53 93.5113 641.203 95.2176 642.551 96.608L643.269 95.912ZM641.53 91.52C641.53 89.7636 642.11 88.3036 643.269 87.108L642.551 86.412C641.203 87.8031 640.53 89.5164 640.53 91.52H641.53ZM643.269 87.108C644.425 85.9149 645.847 85.32 647.57 85.32V84.32C645.585 84.32 643.901 85.0184 642.551 86.412L643.269 87.108ZM647.57 85.32C649.292 85.32 650.714 85.9149 651.871 87.108L652.589 86.412C651.238 85.0184 649.554 84.32 647.57 84.32V85.32ZM651.871 87.108C653.029 88.3036 653.61 89.7636 653.61 91.52H654.61C654.61 89.5164 653.937 87.8031 652.589 86.412L651.871 87.108ZM653.61 91.52C653.61 93.262 653.03 94.7157 651.871 95.912L652.589 96.608C653.936 95.2176 654.61 93.5113 654.61 91.52H653.61ZM651.871 95.912C650.714 97.1051 649.292 97.7 647.57 97.7V98.7C649.554 98.7 651.238 98.0016 652.589 96.608L651.871 95.912ZM647.57 85.14C645.836 85.14 644.37 85.7605 643.206 86.9973L643.934 87.6827C644.903 86.6529 646.103 86.14 647.57 86.14V85.14ZM643.203 86.9996C642.058 88.2322 641.49 89.7499 641.49 91.52H642.49C642.49 89.9835 642.975 88.7145 643.936 87.6804L643.203 86.9996ZM641.49 91.52C641.49 93.278 642.059 94.7886 643.203 96.0204L643.936 95.3396C642.974 94.3047 642.49 93.042 642.49 91.52H641.49ZM643.208 96.0248C644.372 97.2477 645.838 97.86 647.57 97.86V96.86C646.101 96.86 644.9 96.3523 643.932 95.3352L643.208 96.0248ZM647.57 97.86C649.313 97.86 650.781 97.2485 651.934 96.0225L651.205 95.3375C650.252 96.3515 649.053 96.86 647.57 96.86V97.86ZM651.936 96.0204C653.081 94.7886 653.65 93.278 653.65 91.52H652.65C652.65 93.042 652.165 94.3047 651.203 95.3396L651.936 96.0204ZM653.65 91.52C653.65 89.7499 653.081 88.2322 651.936 86.9996L651.203 87.6804C652.165 88.7145 652.65 89.9835 652.65 91.52H653.65ZM651.936 86.9996C650.784 85.7597 649.315 85.14 647.57 85.14V86.14C649.051 86.14 650.249 86.6536 651.203 87.6804L651.936 86.9996ZM685.979 86.1L685.675 85.7028L685.979 86.1ZM686.199 89.5L686.547 89.1409L686.544 89.1385L686.199 89.5ZM687.839 90.82L687.552 91.2297L687.561 91.236L687.839 90.82ZM689.239 91.8L688.929 92.1924V92.1924L689.239 91.8ZM690.159 92.62L690.512 92.2664L690.506 92.2598L690.159 92.62ZM690.019 97.4L690.322 97.7974L690.323 97.7966L690.019 97.4ZM683.599 97.2L683.186 96.9172L682.92 97.306L683.292 97.595L683.599 97.2ZM684.079 96.5L684.359 96.0859L683.947 95.8075L683.666 96.2172L684.079 96.5ZM689.319 96.78L689.02 96.3789L689.016 96.3823L689.319 96.78ZM689.319 93.14L688.965 93.4936L688.969 93.4977L689.319 93.14ZM687.699 91.84L687.412 92.2496L687.416 92.2523L687.699 91.84ZM686.299 90.84L685.986 91.2304L685.992 91.2353L685.999 91.24L686.299 90.84ZM685.359 90L685.005 90.3536L685.012 90.3602L685.359 90ZM685.279 85.54L684.968 85.148L684.964 85.1512L685.279 85.54ZM690.939 85.44L691.393 85.6487L691.596 85.2065L691.16 84.9915L690.939 85.44ZM690.599 86.18L690.381 86.6301L690.84 86.8523L691.053 86.3887L690.599 86.18ZM687.739 85.08C686.938 85.08 686.236 85.2737 685.675 85.7028L686.282 86.4972C686.628 86.233 687.099 86.08 687.739 86.08V85.08ZM685.675 85.7028C685.085 86.1543 684.799 86.7952 684.799 87.56H685.799C685.799 87.0715 685.966 86.7391 686.282 86.4972L685.675 85.7028ZM684.799 87.56C684.799 88.4377 685.171 89.2095 685.853 89.8615L686.544 89.1385C686.026 88.6438 685.799 88.1223 685.799 87.56H684.799ZM685.851 89.8591C686.302 90.2962 686.871 90.7529 687.552 91.2296L688.125 90.4104C687.473 89.9538 686.949 89.5305 686.547 89.1409L685.851 89.8591ZM687.561 91.236C688.242 91.6898 688.693 92.0064 688.929 92.1924L689.549 91.4076C689.278 91.1936 688.795 90.8569 688.116 90.404L687.561 91.236ZM688.929 92.1924C689.164 92.3784 689.458 92.6394 689.812 92.9802L690.506 92.2598C690.139 91.9072 689.82 91.6216 689.549 91.4076L688.929 92.1924ZM689.805 92.9736C690.373 93.5417 690.639 94.1709 690.639 94.88H691.639C691.639 93.8824 691.251 93.005 690.512 92.2664L689.805 92.9736ZM690.639 94.88C690.639 95.862 690.315 96.542 689.714 97.0034L690.323 97.7966C691.216 97.1113 691.639 96.1113 691.639 94.88H690.639ZM689.715 97.0026C689.1 97.4722 688.19 97.74 686.919 97.74V98.74C688.315 98.74 689.47 98.4478 690.322 97.7974L689.715 97.0026ZM686.919 97.74C685.69 97.74 684.697 97.4193 683.905 96.805L683.292 97.595C684.287 98.3674 685.507 98.74 686.919 98.74V97.74ZM684.011 97.4828L684.491 96.7828L683.666 96.2172L683.186 96.9172L684.011 97.4828ZM683.799 96.9141C684.781 97.5787 685.837 97.92 686.959 97.92V96.92C686.053 96.92 685.19 96.6479 684.359 96.0859L683.799 96.9141ZM686.959 97.92C688.035 97.92 688.944 97.6943 689.622 97.1777L689.016 96.3823C688.574 96.7191 687.909 96.92 686.959 96.92V97.92ZM689.617 97.1811C690.329 96.6515 690.679 95.8963 690.679 94.98H689.679C689.679 95.6104 689.455 96.0552 689.02 96.3789L689.617 97.1811ZM690.679 94.98C690.679 94.152 690.317 93.416 689.668 92.7823L688.969 93.4977C689.467 93.984 689.679 94.4746 689.679 94.98H690.679ZM689.672 92.7864C689.243 92.3574 688.677 91.9047 687.982 91.4277L687.416 92.2523C688.081 92.7087 688.594 93.1226 688.965 93.4936L689.672 92.7864ZM687.985 91.4304C687.319 90.9637 686.858 90.6346 686.599 90.44L685.999 91.24C686.273 91.4454 686.745 91.783 687.412 92.2496L687.985 91.4304ZM686.611 90.4496C686.36 90.2491 686.059 89.9803 685.706 89.6398L685.012 90.3602C685.378 90.7131 685.704 91.0043 685.986 91.2304L686.611 90.4496ZM685.712 89.6464C685.118 89.0523 684.839 88.3899 684.839 87.64H683.839C683.839 88.6767 684.239 89.5877 685.005 90.3536L685.712 89.6464ZM684.839 87.64C684.839 86.879 685.098 86.3294 685.593 85.9288L684.964 85.1512C684.207 85.7639 683.839 86.6143 683.839 87.64H684.839ZM685.589 85.932C686.113 85.5173 686.87 85.28 687.919 85.28V84.28C686.728 84.28 685.725 84.5494 684.968 85.148L685.589 85.932ZM687.919 85.28C688.972 85.28 689.901 85.4864 690.718 85.8885L691.16 84.9915C690.189 84.5136 689.106 84.28 687.919 84.28V85.28ZM690.484 85.2312L690.144 85.9712L691.053 86.3887L691.393 85.6487L690.484 85.2312ZM690.817 85.7299C689.911 85.2918 688.881 85.08 687.739 85.08V86.08C688.757 86.08 689.633 86.2682 690.381 86.6301L690.817 85.7299ZM721.826 98H721.326V98.5H721.826V98ZM721.826 85.02V84.52H721.326V85.02H721.826ZM727.886 85.02H728.386V84.52H727.886V85.02ZM727.886 85.82V86.32H728.386V85.82H727.886ZM722.746 85.82V85.32H722.246V85.82H722.746ZM722.746 90.54H722.246V91.04H722.746V90.54ZM727.386 90.54H727.886V90.04H727.386V90.54ZM727.386 91.32V91.82H727.886V91.32H727.386ZM722.746 91.32V90.82H722.246V91.32H722.746ZM722.746 97.16H722.246V97.66H722.746V97.16ZM728.086 97.16H728.586V96.66H728.086V97.16ZM728.086 98V98.5H728.586V98H728.086ZM722.326 98V85.02H721.326V98H722.326ZM721.826 85.52H727.886V84.52H721.826V85.52ZM727.386 85.02V85.82H728.386V85.02H727.386ZM727.886 85.32H722.746V86.32H727.886V85.32ZM722.246 85.82V90.54H723.246V85.82H722.246ZM722.746 91.04H727.386V90.04H722.746V91.04ZM726.886 90.54V91.32H727.886V90.54H726.886ZM727.386 90.82H722.746V91.82H727.386V90.82ZM722.246 91.32V97.16H723.246V91.32H722.246ZM722.746 97.66H728.086V96.66H722.746V97.66ZM727.586 97.16V98H728.586V97.16H727.586ZM728.086 97.5H721.826V98.5H728.086V97.5ZM794.054 96.26L794.413 95.912L794.054 96.26ZM794.054 86.76L794.413 87.108L794.054 86.76ZM803.374 86.76L803.733 86.412L803.374 86.76ZM803.374 96.26L803.733 96.608L803.374 96.26ZM794.714 87.34L794.35 86.9973L794.348 86.9996L794.714 87.34ZM794.714 95.68L794.348 96.0204L794.352 96.0248L794.714 95.68ZM802.714 95.68L803.078 96.0226L803.08 96.0204L802.714 95.68ZM802.714 87.34L803.08 86.9996L802.714 87.34ZM798.714 97.7C796.992 97.7 795.569 97.1051 794.413 95.912L793.695 96.608C795.046 98.0016 796.73 98.7 798.714 98.7V97.7ZM794.413 95.912C793.254 94.7157 792.674 93.262 792.674 91.52H791.674C791.674 93.5113 792.348 95.2176 793.695 96.608L794.413 95.912ZM792.674 91.52C792.674 89.7636 793.255 88.3036 794.413 87.108L793.695 86.412C792.347 87.8031 791.674 89.5164 791.674 91.52H792.674ZM794.413 87.108C795.569 85.9149 796.992 85.32 798.714 85.32V84.32C796.73 84.32 795.046 85.0184 793.695 86.412L794.413 87.108ZM798.714 85.32C800.437 85.32 801.859 85.9149 803.015 87.108L803.733 86.412C802.383 85.0184 800.698 84.32 798.714 84.32V85.32ZM803.015 87.108C804.174 88.3036 804.754 89.7636 804.754 91.52H805.754C805.754 89.5164 805.081 87.8031 803.733 86.412L803.015 87.108ZM804.754 91.52C804.754 93.262 804.174 94.7157 803.015 95.912L803.733 96.608C805.081 95.2176 805.754 93.5113 805.754 91.52H804.754ZM803.015 95.912C801.859 97.1051 800.437 97.7 798.714 97.7V98.7C800.698 98.7 802.383 98.0016 803.733 96.608L803.015 95.912ZM798.714 85.14C796.981 85.14 795.514 85.7605 794.35 86.9973L795.078 87.6827C796.048 86.6529 797.248 86.14 798.714 86.14V85.14ZM794.348 86.9996C793.202 88.2322 792.634 89.7499 792.634 91.52H793.634C793.634 89.9835 794.119 88.7145 795.08 87.6804L794.348 86.9996ZM792.634 91.52C792.634 93.278 793.203 94.7886 794.348 96.0204L795.08 95.3396C794.119 94.3047 793.634 93.042 793.634 91.52H792.634ZM794.352 96.0248C795.517 97.2477 796.983 97.86 798.714 97.86V96.86C797.246 96.86 796.045 96.3523 795.076 95.3352L794.352 96.0248ZM798.714 97.86C800.458 97.86 801.925 97.2485 803.078 96.0225L802.35 95.3375C801.396 96.3515 800.197 96.86 798.714 96.86V97.86ZM803.08 96.0204C804.225 94.7886 804.794 93.278 804.794 91.52H803.794C803.794 93.042 803.31 94.3047 802.348 95.3396L803.08 96.0204ZM804.794 91.52C804.794 89.7499 804.226 88.2322 803.08 86.9996L802.348 87.6804C803.309 88.7145 803.794 89.9835 803.794 91.52H804.794ZM803.08 86.9996C801.928 85.7597 800.46 85.14 798.714 85.14V86.14C800.195 86.14 801.394 86.6536 802.348 87.6804L803.08 86.9996ZM836.263 98H835.763V98.5H836.263V98ZM836.263 85.02V84.52H835.763V85.02H836.263ZM842.923 85.02H843.423V84.52H842.923V85.02ZM842.923 85.82V86.32H843.423V85.82H842.923ZM837.183 85.82V85.32H836.683V85.82H837.183ZM837.183 90.54H836.683V91.04H837.183V90.54ZM842.423 90.54H842.923V90.04H842.423V90.54ZM842.423 91.32V91.82H842.923V91.32H842.423ZM837.183 91.32V90.82H836.683V91.32H837.183ZM837.183 98V98.5H837.683V98H837.183ZM836.763 98V85.02H835.763V98H836.763ZM836.263 85.52H842.923V84.52H836.263V85.52ZM842.423 85.02V85.82H843.423V85.02H842.423ZM842.923 85.32H837.183V86.32H842.923V85.32ZM836.683 85.82V90.54H837.683V85.82H836.683ZM837.183 91.04H842.423V90.04H837.183V91.04ZM841.923 90.54V91.32H842.923V90.54H841.923ZM842.423 90.82H837.183V91.82H842.423V90.82ZM836.683 91.32V98H837.683V91.32H836.683ZM837.183 97.5H836.263V98.5H837.183V97.5Z"/><path fill="#000" d="M224.397 210.72L254.317 134.24H258.957L285.037 211.2L288.877 224.16C289.197 222.133 290.53 217.867 292.877 211.36L319.437 132.16H327.117L290.957 236.64H286.637C268.824 185.547 259.597 158.987 258.957 156.96C257.997 154.08 257.037 151.253 256.077 148.48C255.544 150.293 254.104 154.08 251.757 159.84L221.517 236.64H217.197L180.717 132.16H188.877L215.277 210.08C216.77 214.347 218.157 219.093 219.437 224.32C219.97 222.187 221.624 217.653 224.397 210.72ZM424.236 237.6C409.409 237.6 396.982 232.427 386.956 222.08C376.929 211.733 371.916 199.093 371.916 184.16C371.916 169.12 376.929 156.427 386.956 146.08C396.982 135.733 409.409 130.56 424.236 130.56C439.062 130.56 451.489 135.733 461.516 146.08C471.542 156.427 476.556 169.12 476.556 184.16C476.556 199.093 471.542 211.733 461.516 222.08C451.489 232.427 439.062 237.6 424.236 237.6ZM424.236 137.12C411.436 137.12 400.769 141.653 392.236 150.72C383.809 159.787 379.596 170.933 379.596 184.16C379.596 197.28 383.809 208.373 392.236 217.44C400.769 226.4 411.436 230.88 424.236 230.88C437.142 230.88 447.809 226.4 456.236 217.44C464.662 208.373 468.876 197.28 468.876 184.16C468.876 170.933 464.662 159.787 456.236 150.72C447.809 141.653 437.142 137.12 424.236 137.12ZM545.473 200L530.593 236H523.073L566.593 131.52H570.913L614.753 236H606.593L591.553 200H545.473ZM568.353 143.36C566.753 148.16 565.313 152.16 564.033 155.36L548.033 193.76H588.993L573.153 155.52C570.7 149.547 569.1 145.493 568.353 143.36ZM748.942 236V183.52H676.782V236H669.422V132.16H676.782V176.96H748.942V132.16H756.302V236H748.942ZM828.174 236.48C827.214 235.52 826.734 234.293 826.734 232.8C826.734 231.307 827.214 230.08 828.174 229.12C829.134 228.16 830.361 227.68 831.854 227.68C833.348 227.68 834.574 228.16 835.534 229.12C836.494 230.08 836.974 231.307 836.974 232.8C836.974 234.293 836.494 235.52 835.534 236.48C834.574 237.44 833.348 237.92 831.854 237.92C830.361 237.92 829.134 237.44 828.174 236.48ZM828.974 212L828.174 132H835.534L834.734 212H828.974ZM161.197 411V307.64C170.37 306.893 178.157 306.52 184.557 306.52C194.37 306.52 202.477 309.08 208.877 314.2C215.277 319.213 218.477 326.413 218.477 335.8C218.477 342.093 216.664 347.907 213.037 353.24C209.41 358.573 205.304 362.893 200.717 366.2C213.41 383.053 221.25 393.133 224.237 396.44C230.317 402.733 236.93 406.307 244.077 407.16L243.917 412.12C237.944 412.013 233.09 411.16 229.357 409.56C225.624 407.853 221.89 405.027 218.157 401.08C214.53 397.133 206.477 386.52 193.997 369.24C185.357 369.24 176.877 368.973 168.557 368.44V411H161.197ZM189.997 363.16C194.157 363.16 198.637 360.387 203.437 354.84C208.237 349.293 210.637 342.84 210.637 335.48C210.637 328.12 208.13 322.52 203.117 318.68C198.104 314.84 191.597 312.92 183.597 312.92C179.33 312.92 174.317 313.133 168.557 313.56V362.36C176.237 362.893 183.384 363.16 189.997 363.16ZM292.141 411V307.16H340.621V313.56H299.501V351.32H336.621V357.56H299.501V404.28H342.221V411H292.141ZM410.392 375L395.512 411H387.992L431.512 306.52H435.832L479.672 411H471.512L456.472 375H410.392ZM433.272 318.36C431.672 323.16 430.232 327.16 428.952 330.36L412.952 368.76H453.912L438.072 330.52C435.619 324.547 434.019 320.493 433.272 318.36ZM534.341 411V307.16H541.701V404.28H589.381V411H534.341ZM644.816 411V307.16H652.176V404.28H699.856V411H644.816ZM774.567 411H767.367V373.88L728.167 307.16H736.967L767.207 358.68C769.554 363.373 770.887 365.88 771.207 366.2C771.847 364.813 773.18 362.36 775.207 358.84L805.447 307.16H813.767L774.567 374.2V411ZM882.342 384.44H876.262C876.262 378.253 877.382 372.6 879.622 367.48C881.969 362.253 884.795 357.88 888.102 354.36C891.409 350.84 894.662 347.427 897.862 344.12C905.755 336.333 909.702 328.973 909.702 322.04C909.702 315.107 907.409 309.933 902.822 306.52C898.342 303 891.835 301.24 883.302 301.24C874.875 301.24 867.142 303.587 860.102 308.28L857.222 303.48C860.422 300.92 864.582 298.893 869.702 297.4C874.822 295.8 879.995 295 885.222 295C894.609 295 902.235 297.293 908.102 301.88C914.075 306.36 917.062 313.027 917.062 321.88C917.062 330.093 913.009 338.253 904.902 346.36C901.489 349.773 898.075 353.24 894.662 356.76C891.249 360.173 888.315 364.28 885.862 369.08C883.515 373.88 882.342 379 882.342 384.44ZM875.782 411.48C874.822 410.52 874.342 409.293 874.342 407.8C874.342 406.307 874.822 405.08 875.782 404.12C876.849 403.16 878.075 402.68 879.462 402.68C880.849 402.68 882.022 403.16 882.982 404.12C884.049 405.08 884.582 406.307 884.582 407.8C884.582 409.293 884.049 410.52 882.982 411.48C882.022 412.44 880.849 412.92 879.462 412.92C878.075 412.92 876.849 412.44 875.782 411.48Z"/><path fill="#000" d="M224.397 210.72L229.039 212.577L229.046 212.559L229.053 212.542L224.397 210.72ZM254.317 134.24V129.24H250.904L249.661 132.418L254.317 134.24ZM258.957 134.24L263.692 132.635L262.542 129.24H258.957V134.24ZM285.037 211.2L289.831 209.78L289.803 209.687L289.772 209.595L285.037 211.2ZM288.877 224.16L284.083 225.58L293.816 224.94L288.877 224.16ZM292.877 211.36L297.58 213.056L297.599 213.003L297.617 212.95L292.877 211.36ZM319.437 132.16V127.16H315.84L314.696 130.57L319.437 132.16ZM327.117 132.16L331.842 133.795L334.138 127.16H327.117V132.16ZM290.957 236.64V241.64H294.517L295.682 238.275L290.957 236.64ZM286.637 236.64L281.916 238.286L283.085 241.64H286.637V236.64ZM258.957 156.96L263.725 155.454L263.713 155.417L263.7 155.379L258.957 156.96ZM256.077 148.48L260.802 146.844L255.69 132.076L251.28 147.069L256.077 148.48ZM251.757 159.84L247.126 157.954L247.115 157.981L247.105 158.008L251.757 159.84ZM221.517 236.64V241.64H224.922L226.169 238.472L221.517 236.64ZM217.197 236.64L212.476 238.288L213.647 241.64H217.197V236.64ZM180.717 132.16V127.16H173.675L175.996 133.808L180.717 132.16ZM188.877 132.16L193.612 130.556L192.462 127.16H188.877V132.16ZM215.277 210.08L210.541 211.684L210.549 211.708L210.558 211.732L215.277 210.08ZM219.437 224.32L214.58 225.509L224.288 225.533L219.437 224.32ZM229.053 212.542L258.973 136.062L249.661 132.418L219.741 208.898L229.053 212.542ZM254.317 139.24H258.957V129.24H254.317V139.24ZM254.221 135.845L280.301 212.805L289.772 209.595L263.692 132.635L254.221 135.845ZM280.243 212.62L284.083 225.58L293.671 222.74L289.831 209.78L280.243 212.62ZM293.816 224.94C294.047 223.474 295.192 219.678 297.58 213.056L288.173 209.664C285.868 216.055 284.347 220.793 283.938 223.38L293.816 224.94ZM297.617 212.95L324.177 133.75L314.696 130.57L288.136 209.77L297.617 212.95ZM319.437 137.16H327.117V127.16H319.437V137.16ZM322.392 130.525L286.232 235.005L295.682 238.275L331.842 133.795L322.392 130.525ZM290.957 231.64H286.637V241.64H290.957V231.64ZM291.358 234.994C273.517 183.821 264.335 157.387 263.725 155.454L254.189 158.466C254.859 160.586 264.13 187.272 281.916 238.286L291.358 234.994ZM263.7 155.379C262.734 152.481 261.768 149.636 260.802 146.844L251.352 150.116C252.305 152.87 253.259 155.679 254.213 158.541L263.7 155.379ZM251.28 147.069C250.831 148.595 249.496 152.138 247.126 157.954L256.387 161.726C258.712 156.022 260.256 151.992 260.874 149.891L251.28 147.069ZM247.105 158.008L216.865 234.808L226.169 238.472L256.409 161.672L247.105 158.008ZM221.517 231.64H217.197V241.64H221.517V231.64ZM221.917 234.992L185.437 130.512L175.996 133.808L212.476 238.288L221.917 234.992ZM180.717 137.16H188.877V127.16H180.717V137.16ZM184.141 133.764L210.541 211.684L220.012 208.476L193.612 130.556L184.141 133.764ZM210.558 211.732C211.989 215.821 213.332 220.411 214.58 225.509L224.293 223.131C222.982 217.776 221.551 212.872 219.996 208.428L210.558 211.732ZM224.288 225.533C224.723 223.793 226.233 219.592 229.039 212.577L219.754 208.863C217.014 215.714 215.218 220.58 214.586 223.107L224.288 225.533ZM386.956 222.08L390.546 218.6L386.956 222.08ZM386.956 146.08L390.546 149.56L386.956 146.08ZM461.516 146.08L465.106 142.6L461.516 146.08ZM461.516 222.08L465.106 225.56L461.516 222.08ZM392.236 150.72L388.595 147.293L388.584 147.305L388.573 147.316L392.236 150.72ZM392.236 217.44L388.573 220.844L388.594 220.866L388.615 220.888L392.236 217.44ZM456.236 217.44L459.878 220.865L459.888 220.855L459.898 220.844L456.236 217.44ZM456.236 150.72L459.898 147.316V147.316L456.236 150.72ZM424.236 232.6C410.718 232.6 399.601 227.944 390.546 218.6L383.365 225.56C394.364 236.909 408.1 242.6 424.236 242.6V232.6ZM390.546 218.6C381.459 209.224 376.916 197.847 376.916 184.16H366.916C366.916 200.34 372.398 214.243 383.365 225.56L390.546 218.6ZM376.916 184.16C376.916 170.356 381.467 158.929 390.546 149.56L383.365 142.6C372.391 153.924 366.916 167.884 366.916 184.16H376.916ZM390.546 149.56C399.601 140.216 410.718 135.56 424.236 135.56V125.56C408.1 125.56 394.364 131.251 383.365 142.6L390.546 149.56ZM424.236 135.56C437.753 135.56 448.87 140.216 457.925 149.56L465.106 142.6C454.107 131.251 440.371 125.56 424.236 125.56V135.56ZM457.925 149.56C467.005 158.929 471.556 170.356 471.556 184.16H481.556C481.556 167.884 476.08 153.924 465.106 142.6L457.925 149.56ZM471.556 184.16C471.556 197.847 467.012 209.224 457.925 218.6L465.106 225.56C476.073 214.243 481.556 200.34 481.556 184.16H471.556ZM457.925 218.6C448.87 227.944 437.753 232.6 424.236 232.6V242.6C440.371 242.6 454.107 236.909 465.106 225.56L457.925 218.6ZM424.236 132.12C410.101 132.12 398.102 137.191 388.595 147.293L395.877 154.147C403.436 146.115 412.771 142.12 424.236 142.12V132.12ZM388.573 147.316C379.224 157.375 374.596 169.765 374.596 184.16H384.596C384.596 172.101 388.394 162.198 395.898 154.124L388.573 147.316ZM374.596 184.16C374.596 198.46 379.232 210.793 388.573 220.844L395.898 214.036C388.386 205.954 384.596 196.1 384.596 184.16H374.596ZM388.615 220.888C398.128 230.877 410.12 235.88 424.236 235.88V225.88C412.751 225.88 403.41 221.923 395.856 213.992L388.615 220.888ZM424.236 235.88C438.445 235.88 450.455 230.885 459.878 220.865L452.593 214.015C445.163 221.915 435.839 225.88 424.236 225.88V235.88ZM459.898 220.844C469.239 210.793 473.876 198.46 473.876 184.16H463.876C463.876 196.1 460.085 205.954 452.573 214.036L459.898 220.844ZM473.876 184.16C473.876 169.765 469.247 157.375 459.898 147.316L452.573 154.124C460.078 162.198 463.876 172.101 463.876 184.16H473.876ZM459.898 147.316C450.481 137.184 438.465 132.12 424.236 132.12V142.12C435.82 142.12 445.137 146.123 452.573 154.124L459.898 147.316ZM545.473 200V195H542.13L540.852 198.09L545.473 200ZM530.593 236V241H533.937L535.214 237.91L530.593 236ZM523.073 236L518.458 234.077L515.574 241H523.073V236ZM566.593 131.52V126.52H563.259L561.978 129.597L566.593 131.52ZM570.913 131.52L575.524 129.585L574.237 126.52H570.913V131.52ZM614.753 236V241H622.273L619.364 234.065L614.753 236ZM606.593 236L601.98 237.927L603.263 241H606.593V236ZM591.553 200L596.167 198.073L594.883 195H591.553V200ZM568.353 143.36L573.072 141.708L568.238 127.895L563.61 141.779L568.353 143.36ZM564.033 155.36L568.649 157.283L568.662 157.25L568.676 157.217L564.033 155.36ZM548.033 193.76L543.418 191.837L540.533 198.76H548.033V193.76ZM588.993 193.76V198.76H596.476L593.613 191.847L588.993 193.76ZM573.153 155.52L568.528 157.42L568.531 157.427L568.534 157.433L573.153 155.52ZM540.852 198.09L525.972 234.09L535.214 237.91L550.094 201.91L540.852 198.09ZM530.593 231H523.073V241H530.593V231ZM527.689 237.923L571.209 133.443L561.978 129.597L518.458 234.077L527.689 237.923ZM566.593 136.52H570.913V126.52H566.593V136.52ZM566.303 133.455L610.143 237.935L619.364 234.065L575.524 129.585L566.303 133.455ZM614.753 231H606.593V241H614.753V231ZM611.207 234.073L596.167 198.073L586.94 201.927L601.98 237.927L611.207 234.073ZM591.553 195H545.473V205H591.553V195ZM563.61 141.779C562.028 146.525 560.622 150.425 559.391 153.503L568.676 157.217C570.004 153.895 571.478 149.795 573.097 144.941L563.61 141.779ZM559.418 153.437L543.418 191.837L552.649 195.683L568.649 157.283L559.418 153.437ZM548.033 198.76H588.993V188.76H548.033V198.76ZM593.613 191.847L577.773 153.607L568.534 157.433L584.374 195.673L593.613 191.847ZM577.778 153.62C575.318 147.631 573.769 143.697 573.072 141.708L563.634 145.012C564.431 147.29 566.081 151.462 568.528 157.42L577.778 153.62ZM748.942 236H743.942V241H748.942V236ZM748.942 183.52H753.942V178.52H748.942V183.52ZM676.782 183.52V178.52H671.782V183.52H676.782ZM676.782 236V241H681.782V236H676.782ZM669.422 236H664.422V241H669.422V236ZM669.422 132.16V127.16H664.422V132.16H669.422ZM676.782 132.16H681.782V127.16H676.782V132.16ZM676.782 176.96H671.782V181.96H676.782V176.96ZM748.942 176.96V181.96H753.942V176.96H748.942ZM748.942 132.16V127.16H743.942V132.16H748.942ZM756.302 132.16H761.302V127.16H756.302V132.16ZM756.302 236V241H761.302V236H756.302ZM753.942 236V183.52H743.942V236H753.942ZM748.942 178.52H676.782V188.52H748.942V178.52ZM671.782 183.52V236H681.782V183.52H671.782ZM676.782 231H669.422V241H676.782V231ZM674.422 236V132.16H664.422V236H674.422ZM669.422 137.16H676.782V127.16H669.422V137.16ZM671.782 132.16V176.96H681.782V132.16H671.782ZM676.782 181.96H748.942V171.96H676.782V181.96ZM753.942 176.96V132.16H743.942V176.96H753.942ZM748.942 137.16H756.302V127.16H748.942V137.16ZM751.302 132.16V236H761.302V132.16H751.302ZM756.302 231H748.942V241H756.302V231ZM828.174 236.48L824.639 240.016L828.174 236.48ZM828.174 229.12L824.639 225.584L828.174 229.12ZM828.974 212L823.975 212.05L824.024 217H828.974V212ZM828.174 132V127H823.124L823.175 132.05L828.174 132ZM835.534 132L840.534 132.05L840.585 127H835.534V132ZM834.734 212V217H839.685L839.734 212.05L834.734 212ZM831.71 232.944C831.701 232.935 831.707 232.94 831.72 232.96C831.734 232.98 831.744 233.001 831.751 233.018C831.757 233.034 831.754 233.031 831.748 233.001C831.743 232.97 831.734 232.905 831.734 232.8H821.734C821.734 235.474 822.643 238.02 824.639 240.016L831.71 232.944ZM831.734 232.8C831.734 232.695 831.743 232.63 831.748 232.599C831.754 232.569 831.757 232.566 831.751 232.582C831.744 232.599 831.734 232.62 831.72 232.64C831.707 232.66 831.701 232.665 831.71 232.656L824.639 225.584C822.643 227.58 821.734 230.126 821.734 232.8H831.734ZM831.71 232.656C831.719 232.646 831.714 232.653 831.694 232.666C831.674 232.679 831.653 232.69 831.636 232.696C831.621 232.702 831.623 232.699 831.653 232.694C831.684 232.688 831.749 232.68 831.854 232.68V222.68C829.181 222.68 826.635 223.589 824.639 225.584L831.71 232.656ZM831.854 232.68C831.96 232.68 832.024 232.688 832.055 232.694C832.085 232.699 832.088 232.702 832.072 232.696C832.056 232.69 832.035 232.679 832.014 232.666C831.995 232.653 831.99 232.646 831.999 232.656L839.07 225.584C837.074 223.589 834.528 222.68 831.854 222.68V232.68ZM831.999 232.656C832.008 232.665 832.002 232.66 831.989 232.64C831.975 232.62 831.965 232.599 831.958 232.582C831.952 232.566 831.955 232.569 831.961 232.599C831.966 232.63 831.974 232.695 831.974 232.8H841.974C841.974 230.126 841.066 227.58 839.07 225.584L831.999 232.656ZM831.974 232.8C831.974 232.905 831.966 232.97 831.961 233.001C831.955 233.031 831.952 233.034 831.958 233.018C831.965 233.001 831.975 232.98 831.989 232.96C832.002 232.94 832.008 232.935 831.999 232.944L839.07 240.016C841.066 238.02 841.974 235.474 841.974 232.8H831.974ZM831.999 232.944C831.99 232.954 831.995 232.947 832.014 232.934C832.035 232.921 832.056 232.91 832.072 232.904C832.088 232.898 832.085 232.901 832.055 232.906C832.024 232.912 831.96 232.92 831.854 232.92V242.92C834.528 242.92 837.074 242.011 839.07 240.016L831.999 232.944ZM831.854 232.92C831.749 232.92 831.684 232.912 831.653 232.906C831.623 232.901 831.621 232.898 831.636 232.904C831.653 232.91 831.674 232.921 831.694 232.934C831.714 232.947 831.719 232.954 831.71 232.944L824.639 240.016C826.635 242.011 829.181 242.92 831.854 242.92V232.92ZM833.974 211.95L833.174 131.95L823.175 132.05L823.975 212.05L833.974 211.95ZM828.174 137H835.534V127H828.174V137ZM830.535 131.95L829.735 211.95L839.734 212.05L840.534 132.05L830.535 131.95ZM834.734 207H828.974V217H834.734V207ZM161.197 411H156.197V416H161.197V411ZM161.197 307.64L160.791 302.656L156.197 303.03V307.64H161.197ZM208.877 314.2L205.753 318.104L205.773 318.12L205.794 318.136L208.877 314.2ZM213.037 353.24L217.172 356.052L213.037 353.24ZM200.717 366.2L197.793 362.144L193.651 365.13L196.723 369.208L200.717 366.2ZM224.237 396.44L220.526 399.791L220.583 399.854L220.641 399.914L224.237 396.44ZM244.077 407.16L249.074 407.321L249.222 402.739L244.67 402.195L244.077 407.16ZM243.917 412.12L243.828 417.119L248.755 417.207L248.914 412.281L243.917 412.12ZM229.357 409.56L227.278 414.107L227.332 414.132L227.387 414.156L229.357 409.56ZM218.157 401.08L214.475 404.463L214.5 404.49L214.525 404.516L218.157 401.08ZM193.997 369.24L198.05 366.313L196.553 364.24H193.997V369.24ZM168.557 368.44L168.877 363.45L163.557 363.109V368.44H168.557ZM168.557 411V416H173.557V411H168.557ZM203.437 354.84L199.656 351.568L203.437 354.84ZM203.117 318.68L206.157 314.711H206.157L203.117 318.68ZM168.557 313.56L168.188 308.574L163.557 308.917V313.56H168.557ZM168.557 362.36H163.557V367.025L168.211 367.348L168.557 362.36ZM166.197 411V307.64H156.197V411H166.197ZM161.603 312.624C170.694 311.884 178.337 311.52 184.557 311.52V301.52C177.977 301.52 170.047 301.903 160.791 302.656L161.603 312.624ZM184.557 311.52C193.467 311.52 200.406 313.826 205.753 318.104L212 310.296C204.548 304.334 195.273 301.52 184.557 301.52V311.52ZM205.794 318.136C210.787 322.048 213.477 327.682 213.477 335.8H223.477C223.477 325.145 219.767 316.379 211.96 310.264L205.794 318.136ZM213.477 335.8C213.477 341.064 211.98 345.902 208.902 350.428L217.172 356.052C221.347 349.911 223.477 343.122 223.477 335.8H213.477ZM208.902 350.428C205.558 355.347 201.845 359.223 197.793 362.144L203.641 370.256C208.762 366.564 213.262 361.8 217.172 356.052L208.902 350.428ZM196.723 369.208C209.351 385.975 217.353 396.278 220.526 399.791L227.947 393.089C225.148 389.989 217.469 380.132 204.711 363.192L196.723 369.208ZM220.641 399.914C227.342 406.85 234.963 411.107 243.484 412.125L244.67 402.195C238.897 401.506 233.292 398.616 227.833 392.966L220.641 399.914ZM239.079 406.999L238.919 411.959L248.914 412.281L249.074 407.321L239.079 406.999ZM244.006 407.121C238.402 407.021 234.254 406.219 231.326 404.964L227.387 414.156C231.926 416.101 237.485 417.006 243.828 417.119L244.006 407.121ZM231.436 405.013C228.442 403.644 225.216 401.267 221.789 397.644L214.525 404.516C218.564 408.787 222.805 412.062 227.278 414.107L231.436 405.013ZM221.839 397.697C218.456 394.016 210.594 383.681 198.05 366.313L189.943 372.167C202.36 389.359 210.604 400.251 214.475 404.463L221.839 397.697ZM193.997 364.24C185.46 364.24 177.086 363.977 168.877 363.45L168.237 373.43C176.667 373.97 185.254 374.24 193.997 374.24V364.24ZM163.557 368.44V411H173.557V368.44H163.557ZM168.557 406H161.197V416H168.557V406ZM189.997 368.16C196.4 368.16 202.151 363.966 207.218 358.112L199.656 351.568C195.122 356.807 191.914 358.16 189.997 358.16V368.16ZM207.218 358.112C212.807 351.653 215.637 344.037 215.637 335.48H205.637C205.637 341.643 203.667 346.934 199.656 351.568L207.218 358.112ZM215.637 335.48C215.637 326.855 212.62 319.661 206.157 314.711L200.077 322.649C203.641 325.379 205.637 329.385 205.637 335.48H215.637ZM206.157 314.711C200.062 310.042 192.399 307.92 183.597 307.92V317.92C190.795 317.92 196.145 319.638 200.077 322.649L206.157 314.711ZM183.597 307.92C179.173 307.92 174.031 308.141 168.188 308.574L168.926 318.546C174.603 318.126 179.488 317.92 183.597 317.92V307.92ZM163.557 313.56V362.36H173.557V313.56H163.557ZM168.211 367.348C175.988 367.888 183.251 368.16 189.997 368.16V358.16C183.516 358.16 176.486 357.899 168.903 357.372L168.211 367.348ZM292.141 411H287.141V416H292.141V411ZM292.141 307.16V302.16H287.141V307.16H292.141ZM340.621 307.16H345.621V302.16H340.621V307.16ZM340.621 313.56V318.56H345.621V313.56H340.621ZM299.501 313.56V308.56H294.501V313.56H299.501ZM299.501 351.32H294.501V356.32H299.501V351.32ZM336.621 351.32H341.621V346.32H336.621V351.32ZM336.621 357.56V362.56H341.621V357.56H336.621ZM299.501 357.56V352.56H294.501V357.56H299.501ZM299.501 404.28H294.501V409.28H299.501V404.28ZM342.221 404.28H347.221V399.28H342.221V404.28ZM342.221 411V416H347.221V411H342.221ZM297.141 411V307.16H287.141V411H297.141ZM292.141 312.16H340.621V302.16H292.141V312.16ZM335.621 307.16V313.56H345.621V307.16H335.621ZM340.621 308.56H299.501V318.56H340.621V308.56ZM294.501 313.56V351.32H304.501V313.56H294.501ZM299.501 356.32H336.621V346.32H299.501V356.32ZM331.621 351.32V357.56H341.621V351.32H331.621ZM336.621 352.56H299.501V362.56H336.621V352.56ZM294.501 357.56V404.28H304.501V357.56H294.501ZM299.501 409.28H342.221V399.28H299.501V409.28ZM337.221 404.28V411H347.221V404.28H337.221ZM342.221 406H292.141V416H342.221V406ZM410.392 375V370H407.048L405.771 373.09L410.392 375ZM395.512 411V416H398.855L400.133 412.91L395.512 411ZM387.992 411L383.376 409.077L380.493 416H387.992V411ZM431.512 306.52V301.52H428.178L426.896 304.597L431.512 306.52ZM435.832 306.52L440.442 304.585L439.156 301.52H435.832V306.52ZM479.672 411V416H487.192L484.282 409.065L479.672 411ZM471.512 411L466.898 412.927L468.182 416H471.512V411ZM456.472 375L461.085 373.073L459.802 370H456.472V375ZM433.272 318.36L437.991 316.708L433.156 302.895L428.528 316.779L433.272 318.36ZM428.952 330.36L433.567 332.283L433.581 332.25L433.594 332.217L428.952 330.36ZM412.952 368.76L408.336 366.837L405.452 373.76H412.952V368.76ZM453.912 368.76V373.76H461.395L458.531 366.847L453.912 368.76ZM438.072 330.52L433.447 332.42L433.45 332.427L433.453 332.433L438.072 330.52ZM405.771 373.09L390.891 409.09L400.133 412.91L415.013 376.91L405.771 373.09ZM395.512 406H387.992V416H395.512V406ZM392.607 412.923L436.127 308.443L426.896 304.597L383.376 409.077L392.607 412.923ZM431.512 311.52H435.832V301.52H431.512V311.52ZM431.221 308.455L475.061 412.935L484.282 409.065L440.442 304.585L431.221 308.455ZM479.672 406H471.512V416H479.672V406ZM476.125 409.073L461.085 373.073L451.858 376.927L466.898 412.927L476.125 409.073ZM456.472 370H410.392V380H456.472V370ZM428.528 316.779C426.947 321.525 425.541 325.425 424.31 328.503L433.594 332.217C434.923 328.895 436.397 324.795 438.015 319.941L428.528 316.779ZM424.336 328.437L408.336 366.837L417.567 370.683L433.567 332.283L424.336 328.437ZM412.952 373.76H453.912V363.76H412.952V373.76ZM458.531 366.847L442.691 328.607L433.453 332.433L449.293 370.673L458.531 366.847ZM442.697 328.62C440.237 322.631 438.687 318.697 437.991 316.708L428.553 320.012C429.35 322.29 431 326.462 433.447 332.42L442.697 328.62ZM534.341 411H529.341V416H534.341V411ZM534.341 307.16V302.16H529.341V307.16H534.341ZM541.701 307.16H546.701V302.16H541.701V307.16ZM541.701 404.28H536.701V409.28H541.701V404.28ZM589.381 404.28H594.381V399.28H589.381V404.28ZM589.381 411V416H594.381V411H589.381ZM539.341 411V307.16H529.341V411H539.341ZM534.341 312.16H541.701V302.16H534.341V312.16ZM536.701 307.16V404.28H546.701V307.16H536.701ZM541.701 409.28H589.381V399.28H541.701V409.28ZM584.381 404.28V411H594.381V404.28H584.381ZM589.381 406H534.341V416H589.381V406ZM644.816 411H639.816V416H644.816V411ZM644.816 307.16V302.16H639.816V307.16H644.816ZM652.176 307.16H657.176V302.16H652.176V307.16ZM652.176 404.28H647.176V409.28H652.176V404.28ZM699.856 404.28H704.856V399.28H699.856V404.28ZM699.856 411V416H704.856V411H699.856ZM649.816 411V307.16H639.816V411H649.816ZM644.816 312.16H652.176V302.16H644.816V312.16ZM647.176 307.16V404.28H657.176V307.16H647.176ZM652.176 409.28H699.856V399.28H652.176V409.28ZM694.856 404.28V411H704.856V404.28H694.856ZM699.856 406H644.816V416H699.856V406ZM774.567 411V416H779.567V411H774.567ZM767.367 411H762.367V416H767.367V411ZM767.367 373.88H772.367V372.52L771.678 371.347L767.367 373.88ZM728.167 307.16V302.16H719.43L723.856 309.693L728.167 307.16ZM736.967 307.16L741.279 304.629L739.83 302.16H736.967V307.16ZM767.207 358.68L771.679 356.444L771.604 356.294L771.519 356.149L767.207 358.68ZM771.207 366.2L767.671 369.736L772.742 374.806L775.747 368.295L771.207 366.2ZM775.207 358.84L770.891 356.315L770.883 356.33L770.874 356.345L775.207 358.84ZM805.447 307.16V302.16H802.58L801.131 304.635L805.447 307.16ZM813.767 307.16L818.083 309.684L822.483 302.16H813.767V307.16ZM774.567 374.2L770.251 371.676L769.567 372.845V374.2H774.567ZM774.567 406H767.367V416H774.567V406ZM772.367 411V373.88H762.367V411H772.367ZM771.678 371.347L732.478 304.627L723.856 309.693L763.056 376.413L771.678 371.347ZM728.167 312.16H736.967V302.16H728.167V312.16ZM732.655 309.691L762.895 361.211L771.519 356.149L741.279 304.629L732.655 309.691ZM762.735 360.916C763.914 363.275 764.856 365.119 765.553 366.428C765.898 367.078 766.204 367.636 766.461 368.074C766.588 368.291 766.727 368.521 766.869 368.736C766.951 368.859 767.244 369.308 767.671 369.736L774.742 362.664C774.958 362.88 775.094 363.06 775.13 363.107C775.157 363.144 775.177 363.172 775.189 363.189C775.201 363.206 775.208 363.216 775.209 363.219C775.212 363.223 775.203 363.209 775.181 363.173C775.159 363.138 775.13 363.09 775.093 363.026C774.936 362.757 774.702 362.335 774.381 361.732C773.744 360.534 772.846 358.779 771.679 356.444L762.735 360.916ZM775.747 368.295C776.28 367.14 777.505 364.87 779.54 361.335L770.874 356.345C768.856 359.85 767.414 362.486 766.667 364.105L775.747 368.295ZM779.522 361.365L809.762 309.685L801.131 304.635L770.891 356.315L779.522 361.365ZM805.447 312.16H813.767V302.16H805.447V312.16ZM809.451 304.636L770.251 371.676L778.883 376.724L818.083 309.684L809.451 304.636ZM769.567 374.2V411H779.567V374.2H769.567ZM882.342 384.44V389.44H887.342V384.44H882.342ZM876.262 384.44H871.262V389.44H876.262V384.44ZM879.622 367.48L875.061 365.432L875.051 365.454L875.041 365.476L879.622 367.48ZM888.102 354.36L891.746 357.783L888.102 354.36ZM897.862 344.12L894.35 340.561L894.309 340.601L894.269 340.643L897.862 344.12ZM902.822 306.52L899.733 310.452L899.784 310.492L899.837 310.531L902.822 306.52ZM860.102 308.28L855.814 310.852L858.512 315.349L862.875 312.44L860.102 308.28ZM857.222 303.48L854.098 299.576L850.686 302.305L852.934 306.052L857.222 303.48ZM869.702 297.4L871.102 302.2L871.148 302.187L871.193 302.172L869.702 297.4ZM908.102 301.88L905.022 305.819L905.062 305.85L905.102 305.88L908.102 301.88ZM894.662 356.76L898.197 360.296L898.225 360.268L898.251 360.241L894.662 356.76ZM885.862 369.08L881.41 366.804L881.389 366.844L881.37 366.884L885.862 369.08ZM875.782 411.48L872.246 415.016L872.339 415.109L872.437 415.196L875.782 411.48ZM875.782 404.12L872.437 400.404L872.339 400.491L872.246 400.584L875.782 404.12ZM882.982 404.12L879.446 407.656L879.539 407.749L879.637 407.836L882.982 404.12ZM882.982 411.48L879.637 407.764L879.539 407.852L879.446 407.944L882.982 411.48ZM882.342 379.44H876.262V389.44H882.342V379.44ZM881.262 384.44C881.262 378.869 882.267 373.908 884.203 369.484L875.041 365.476C872.496 371.292 871.262 377.638 871.262 384.44H881.262ZM884.183 369.528C886.344 364.716 888.883 360.832 891.746 357.783L884.458 350.937C880.708 354.928 877.593 359.791 875.061 365.432L884.183 369.528ZM891.746 357.783C895.037 354.281 898.273 350.885 901.455 347.597L894.269 340.643C891.051 343.968 887.78 347.399 884.458 350.937L891.746 357.783ZM901.373 347.68C909.669 339.496 914.702 330.925 914.702 322.04H904.702C904.702 327.022 901.842 333.17 894.35 340.561L901.373 347.68ZM914.702 322.04C914.702 313.903 911.936 307.07 905.807 302.509L899.837 310.531C902.881 312.797 904.702 316.31 904.702 322.04H914.702ZM905.911 302.588C900.207 298.106 892.422 296.24 883.302 296.24V306.24C891.248 306.24 896.477 307.894 899.733 310.452L905.911 302.588ZM883.302 296.24C873.884 296.24 865.186 298.881 857.328 304.12L862.875 312.44C869.098 308.292 875.867 306.24 883.302 306.24V296.24ZM864.389 305.708L861.509 300.908L852.934 306.052L855.814 310.852L864.389 305.708ZM860.345 307.384C862.906 305.336 866.429 303.563 871.102 302.2L868.302 292.6C862.735 294.224 857.937 296.504 854.098 299.576L860.345 307.384ZM871.193 302.172C875.843 300.719 880.514 300 885.222 300V290C879.476 290 873.8 290.881 868.211 292.628L871.193 302.172ZM885.222 300C893.788 300 900.243 302.082 905.022 305.819L911.181 297.941C904.228 292.504 895.429 290 885.222 290V300ZM905.102 305.88C909.574 309.234 912.062 314.271 912.062 321.88H922.062C922.062 311.783 918.577 303.486 911.102 297.88L905.102 305.88ZM912.062 321.88C912.062 328.315 908.912 335.278 901.366 342.824L908.437 349.896C917.105 341.228 922.062 331.871 922.062 321.88H912.062ZM901.366 342.824C897.935 346.256 894.503 349.741 891.072 353.279L898.251 360.241C901.647 356.739 905.042 353.29 908.437 349.896L901.366 342.824ZM891.126 353.224C887.303 357.048 884.073 361.593 881.41 366.804L890.314 371.356C892.557 366.967 895.194 363.299 898.197 360.296L891.126 353.224ZM881.37 366.884C878.683 372.38 877.342 378.253 877.342 384.44H887.342C887.342 379.747 888.348 375.379 890.354 371.276L881.37 366.884ZM879.317 407.944C879.308 407.935 879.315 407.94 879.328 407.96C879.341 407.98 879.352 408.001 879.358 408.018C879.364 408.034 879.361 408.031 879.356 408.001C879.35 407.97 879.342 407.905 879.342 407.8H869.342C869.342 410.474 870.25 413.02 872.246 415.016L879.317 407.944ZM879.342 407.8C879.342 407.695 879.35 407.63 879.356 407.599C879.361 407.569 879.364 407.566 879.358 407.582C879.352 407.599 879.341 407.62 879.328 407.64C879.315 407.66 879.308 407.665 879.317 407.656L872.246 400.584C870.25 402.58 869.342 405.126 869.342 407.8H879.342ZM879.127 407.836C879.253 407.723 879.319 407.698 879.324 407.696C879.331 407.694 879.34 407.691 879.355 407.688C879.371 407.685 879.405 407.68 879.462 407.68V397.68C876.793 397.68 874.387 398.649 872.437 400.404L879.127 407.836ZM879.462 407.68C879.519 407.68 879.543 407.685 879.54 407.684C879.539 407.684 879.534 407.683 879.524 407.68C879.514 407.677 879.502 407.673 879.489 407.668C879.475 407.662 879.462 407.656 879.451 407.65C879.439 407.644 879.43 407.638 879.424 407.634C879.419 407.63 879.418 407.629 879.421 407.632C879.424 407.635 879.433 407.642 879.446 407.656L886.517 400.584C884.597 398.665 882.143 397.68 879.462 397.68V407.68ZM879.637 407.836C879.663 407.86 879.662 407.863 879.647 407.843C879.64 407.833 879.631 407.82 879.622 407.804C879.613 407.788 879.604 407.771 879.596 407.754C879.589 407.736 879.584 407.722 879.58 407.71C879.577 407.698 879.575 407.692 879.575 407.692C879.575 407.692 879.577 407.701 879.579 407.718C879.58 407.735 879.582 407.762 879.582 407.8H889.582C889.582 404.955 888.495 402.355 886.327 400.404L879.637 407.836ZM879.582 407.8C879.582 407.838 879.58 407.865 879.579 407.882C879.577 407.899 879.575 407.908 879.575 407.908C879.575 407.908 879.577 407.902 879.58 407.89C879.584 407.878 879.589 407.863 879.596 407.846C879.604 407.829 879.613 407.812 879.622 407.796C879.631 407.78 879.64 407.767 879.647 407.757C879.662 407.737 879.663 407.74 879.637 407.764L886.327 415.196C888.495 413.245 889.582 410.645 889.582 407.8H879.582ZM879.446 407.944C879.433 407.958 879.424 407.965 879.421 407.968C879.418 407.971 879.419 407.97 879.424 407.966C879.43 407.962 879.439 407.956 879.451 407.95C879.462 407.944 879.475 407.938 879.489 407.932C879.502 407.927 879.514 407.923 879.524 407.92C879.534 407.917 879.539 407.916 879.54 407.916C879.543 407.915 879.519 407.92 879.462 407.92V417.92C882.143 417.92 884.597 416.935 886.517 415.016L879.446 407.944ZM879.462 407.92C879.405 407.92 879.371 407.915 879.355 407.912C879.34 407.909 879.331 407.906 879.324 407.904C879.319 407.902 879.253 407.877 879.127 407.764L872.437 415.196C874.387 416.951 876.793 417.92 879.462 417.92V407.92Z"/><defs><filter id="filter0_d_101_19" width="1087" height="656.814" x="0" y="0" color-interpolation-filters="sRGB" filterUnits="userSpaceOnUse"><feFlood flood-opacity="0" result="BackgroundImageFix"/><feColorMatrix in="SourceAlpha" result="hardAlpha" type="matrix" values="0 0 0 0 0 0 0 0 0 0 0 0 0 0 0 0 0 0 127 0"/><feOffset dx="20" dy="20"/><feComposite in2="hardAlpha" operator="out"/><feColorMatrix type="matrix" values="0 0 0 0 0 0 0 0 0 0 0 0 0 0 0 0 0 0 1 0"/><feBlend in2="BackgroundImageFix" mode="normal" result="effect1_dropShadow_101_19"/><feBlend in="SourceGraphic" in2="effect1_dropShadow_101_19" mode="normal" result="shape"/></filter></defs></svg>