<svg xmlns="http://www.w3.org/2000/svg" width="1087" height="657" fill="none" viewBox="0 0 1087 657"><g filter="url(#filter0_d_95_33)"><mask id="path-1-outside-1_95_33" width="1067" height="637" x="0" y="0" fill="#000" maskUnits="userSpaceOnUse"><rect width="1067" height="637" fill="#fff"/><path d="M3 3H1064V629L966.799 521.069H3V3Z"/></mask><path fill="#FFED31" d="M3 3H1064V629L966.799 521.069H3V3Z"/><path fill="#000" d="M3 3V0H0V3H3ZM1064 3H1067V0H1064V3ZM1064 629L1061.77 631.008L1067 636.814V629H1064ZM966.799 521.069L969.028 519.061L968.135 518.069H966.799V521.069ZM3 521.069H0V524.069H3V521.069ZM3 6H1064V0H3V6ZM1061 3V629H1067V3H1061ZM1066.23 626.992L969.028 519.061L964.57 523.077L1061.77 631.008L1066.23 626.992ZM966.799 518.069H3V524.069H966.799V518.069ZM6 521.069V3H0V521.069H6Z" mask="url(#path-1-outside-1_95_33)"/></g><defs><filter id="filter0_d_95_33" width="1087" height="656.814" x="0" y="0" color-interpolation-filters="sRGB" filterUnits="userSpaceOnUse"><feFlood flood-opacity="0" result="BackgroundImageFix"/><feColorMatrix in="SourceAlpha" result="hardAlpha" type="matrix" values="0 0 0 0 0 0 0 0 0 0 0 0 0 0 0 0 0 0 127 0"/><feOffset dx="20" dy="20"/><feComposite in2="hardAlpha" operator="out"/><feColorMatrix type="matrix" values="0 0 0 0 0 0 0 0 0 0 0 0 0 0 0 0 0 0 1 0"/><feBlend in2="BackgroundImageFix" mode="normal" result="effect1_dropShadow_95_33"/><feBlend in="SourceGraphic" in2="effect1_dropShadow_95_33" mode="normal" result="shape"/></filter></defs></svg>